<svg width="200" height="110" viewBox="0 0 200 110" fill="none" xmlns="http://www.w3.org/2000/svg">
<path d="M85.4662 0.377075V3.45481H89.982V16.9846H94.033V3.45481H98.5663V0.377075H85.4662Z" fill="#512D6D"/>
<path d="M111.43 0.377075V7.02357H105.029V0.377075H100.978V16.9846H105.029V10.1013H111.43V16.9846H115.472V0.377075H111.43Z" fill="#512D6D"/>
<path d="M119.023 0.333252V16.9846H129.072V13.9068H123.065V10.0487H128.362V6.97975H123.065V3.41098H129.072V0.333252H119.023Z" fill="#512D6D"/>
<path d="M92.2355 23.7889C91.7269 23.7889 91.3148 23.9204 90.9904 24.1922C90.6659 24.464 90.5081 24.8499 90.5081 25.3497C90.5081 25.8495 90.6572 26.2616 90.9553 26.5685C91.2534 26.8754 91.648 27.1121 92.1215 27.2787C92.6038 27.4453 93.1386 27.6032 93.7261 27.7522C94.3136 27.9013 94.9011 28.0854 95.4886 28.2959C96.0673 28.5063 96.6022 28.7694 97.0844 29.085C97.5667 29.4007 97.9525 29.8479 98.2507 30.4178C98.5488 30.9965 98.6978 31.6805 98.6978 32.4872C98.6978 33.8901 98.1279 35.0914 96.9792 36.091C95.8393 37.0906 94.3311 37.5904 92.4635 37.5904C90.5958 37.5904 89.0876 37.1432 87.9477 36.2401C86.8078 35.3369 86.2379 34.0655 86.2379 32.4083H90.5432C90.6484 33.7323 91.3323 34.3899 92.5775 34.3899C93.1649 34.3899 93.6209 34.2321 93.9453 33.9252C94.2785 33.6183 94.4451 33.2325 94.4451 32.7502C94.4451 32.268 94.2961 31.8909 93.9979 31.5928C93.6998 31.2947 93.3052 31.0579 92.8317 30.8826C92.3495 30.7072 91.8146 30.5494 91.2271 30.4003C90.6396 30.2512 90.0521 30.0671 89.4646 29.8479C88.8772 29.6287 88.3511 29.3656 87.8688 29.0587C87.3865 28.7518 87.0007 28.3134 86.7026 27.7347C86.4045 27.156 86.2554 26.4808 86.2554 25.6916C86.2554 24.1484 86.8341 22.912 87.9828 21.9826C89.1314 21.0531 90.6046 20.5884 92.3933 20.5884C94.1821 20.5884 95.6289 20.9917 96.7337 21.8072C97.8385 22.6227 98.4085 23.9029 98.4611 25.6478H94.0593C93.9979 25.0515 93.805 24.5868 93.4806 24.2624C93.1562 23.9379 92.7441 23.7801 92.2355 23.7801" fill="#512D6D"/>
<path d="M105.949 20.8339H101.907V37.4326H105.949V20.8339Z" fill="#512D6D"/>
<path d="M123.969 20.8339L118.716 29.1551L123.942 37.4326H119.356L116.305 32.6099L113.49 37.4326H108.904L114.13 29.1288L108.904 20.8339H113.49L116.542 25.6828L119.374 20.8339H123.969Z" fill="#512D6D"/>
<path d="M125.766 23.9028V20.8339H138.866V23.9028H134.324V37.4326H130.282V23.9028H125.766Z" fill="#512D6D"/>
<path d="M151.73 20.8339H155.772V37.4326H151.73V30.5493H145.32V37.4326H141.278V20.8339H145.32V27.4804H151.73V20.8339Z" fill="#512D6D"/>
<path d="M86.6062 57.8806V41.2819H97.4089V44.3596H90.6484V47.9284H95.7078V51.0061H90.6484V57.8806H86.6062Z" fill="#512D6D"/>
<path d="M101.705 55.636C100.057 54.0314 99.2328 51.9971 99.2328 49.5332C99.2328 47.0692 100.057 45.0437 101.705 43.4478C103.354 41.852 105.371 41.0453 107.756 41.0453C110.141 41.0453 112.158 41.8432 113.788 43.4478C115.419 45.0525 116.235 47.078 116.235 49.5332C116.235 51.9883 115.419 54.0226 113.78 55.636C112.14 57.2494 110.132 58.0473 107.747 58.0473C105.362 58.0473 103.354 57.2406 101.705 55.636ZM110.921 53.0142C111.719 52.1462 112.114 50.9887 112.114 49.5419C112.114 48.0951 111.719 46.9289 110.921 46.0608C110.123 45.1928 109.062 44.7631 107.729 44.7631C106.397 44.7631 105.336 45.1928 104.538 46.0608C103.74 46.9289 103.345 48.0864 103.345 49.5419C103.345 50.9975 103.74 52.1549 104.538 53.0142C105.336 53.8823 106.397 54.312 107.729 54.312C109.062 54.312 110.123 53.8823 110.921 53.0142Z" fill="#512D6D"/>
<path d="M122.881 51.427V57.8806H118.839V41.2819H125.389C127.309 41.2819 128.809 41.7817 129.879 42.7725C130.948 43.7633 131.483 44.9646 131.483 46.3676C131.483 47.3321 131.194 48.2703 130.606 49.1822C130.019 50.0942 129.072 50.743 127.748 51.1201L131.816 57.8806H127.09L123.355 51.427H122.881ZM122.881 44.3596V48.358H125.389C126.003 48.358 126.494 48.1739 126.845 47.8144C127.204 47.4461 127.38 46.9726 127.38 46.3851C127.38 45.7976 127.195 45.3066 126.836 44.9295C126.476 44.5525 125.994 44.3596 125.398 44.3596H122.89H122.881Z" fill="#512D6D"/>
<path d="M153.431 41.2819V57.8806H149.388V48.5158L145.53 57.8806H142.531L138.673 48.5158V57.8806H134.631V41.2819H139.261L144.04 52.7247L148.792 41.2819H153.431Z" fill="#512D6D"/>
<path d="M88.1056 76.0753C86.4571 74.4794 85.6329 72.4451 85.6329 69.99C85.6329 67.5348 86.4571 65.5005 88.1056 63.9046C89.7541 62.3088 91.762 61.5021 94.1471 61.5021C95.9972 61.5021 97.6281 61.9931 99.0662 62.9664C100.504 63.9485 101.504 65.2988 102.065 67.035H97.2423C96.611 65.8249 95.6026 65.2111 94.2172 65.2111C92.8318 65.2111 91.7357 65.6496 90.9378 66.5089C90.1399 67.3769 89.7453 68.5344 89.7453 69.9812C89.7453 71.428 90.1399 72.5942 90.9378 73.4623C91.7357 74.3303 92.823 74.76 94.2172 74.76C95.6114 74.76 96.611 74.155 97.2423 72.9362H102.065C101.495 74.6723 100.495 76.0227 99.0662 77.0047C97.6281 77.9868 95.9884 78.4691 94.1471 78.4691C91.7708 78.4691 89.7541 77.6711 88.1056 76.0665" fill="#512D6D"/>
<path d="M106.169 76.084C104.52 74.4794 103.696 72.4451 103.696 69.9812C103.696 67.5172 104.52 65.4917 106.169 63.8959C107.817 62.3 109.834 61.4933 112.219 61.4933C114.604 61.4933 116.621 62.2912 118.252 63.8959C119.882 65.5005 120.698 67.526 120.698 69.9812C120.698 72.4363 119.874 74.4706 118.243 76.084C116.603 77.6974 114.595 78.4953 112.21 78.4953C109.825 78.4953 107.817 77.6886 106.169 76.084ZM115.393 73.4622C116.191 72.5942 116.586 71.4367 116.586 69.9899C116.586 68.5431 116.191 67.3769 115.393 66.5089C114.595 65.6408 113.534 65.2111 112.201 65.2111C110.868 65.2111 109.808 65.6408 109.01 66.5089C108.212 67.3769 107.817 68.5344 107.817 69.9899C107.817 71.4455 108.212 72.6029 109.01 73.4622C109.808 74.3303 110.868 74.76 112.201 74.76C113.534 74.76 114.595 74.3303 115.393 73.4622Z" fill="#512D6D"/>
<path d="M123.302 61.7388H127.344V75.2597H132.386V78.3375H123.302V61.7388Z" fill="#512D6D"/>
<path d="M134.631 61.7388H138.673V75.2597H143.706V78.3375H134.631V61.7388Z" fill="#512D6D"/>
<path d="M156.009 61.6862V64.7639H150.002V68.3327H155.298V71.4104H150.002V75.2597H156.009V78.3375H145.951V61.6862H156.009Z" fill="#512D6D"/>
<path d="M160.98 76.0753C159.332 74.4794 158.508 72.4451 158.508 69.99C158.508 67.5348 159.332 65.5005 160.98 63.9046C162.629 62.3088 164.637 61.5021 167.022 61.5021C168.863 61.5021 170.503 61.9931 171.941 62.9664C173.379 63.9485 174.378 65.2988 174.94 67.035H170.117C169.486 65.8249 168.477 65.2111 167.092 65.2111C165.706 65.2111 164.61 65.6496 163.821 66.5089C163.023 67.3769 162.629 68.5344 162.629 69.9812C162.629 71.428 163.023 72.5942 163.821 73.4623C164.619 74.3303 165.689 74.76 167.022 74.76C167.986 74.76 168.767 74.5233 169.372 74.041C169.977 73.5587 170.389 72.9186 170.591 72.1119H165.908V69.0342H174.94V72.1119C174.642 73.6289 173.817 75.0406 172.458 76.3471C171.809 76.9784 171.011 77.4958 170.056 77.8816C169.1 78.2762 168.092 78.4691 167.013 78.4691C164.628 78.4691 162.62 77.6711 160.972 76.0665" fill="#512D6D"/>
<path d="M187.593 61.6862V64.7639H181.586V68.3327H186.891V71.4104H181.586V75.2597H187.593V78.3375H177.544V61.6862H187.593Z" fill="#512D6D"/>
<path d="M85.931 98.2068V87.8864H92.6476V89.7979H88.4475V92.0163H91.5954V93.9278H88.4475V98.2068H85.931Z" fill="#A50050"/>
<path d="M100.943 98.2068L100.373 96.4706H96.6724L96.1024 98.2068H93.428L97.0143 87.86H100.075L103.643 98.2068H100.951H100.943ZM97.2949 94.5591H99.7326L98.5137 90.8851L97.2949 94.5591Z" fill="#A50050"/>
<path d="M107.379 94.1997V98.2156H104.862V87.8951H108.931C110.123 87.8951 111.053 88.202 111.728 88.8246C112.394 89.4384 112.727 90.1837 112.727 91.0606C112.727 91.6568 112.543 92.2443 112.184 92.8143C111.824 93.3842 111.228 93.7876 110.404 94.0155L112.929 98.2156H109.992L107.668 94.1997H107.37H107.379ZM107.379 89.7979V92.2794H108.939C109.316 92.2794 109.623 92.1654 109.843 91.9374C110.062 91.7094 110.176 91.4113 110.176 91.0518C110.176 90.6923 110.062 90.3854 109.834 90.1486C109.606 89.9119 109.308 89.7979 108.939 89.7979H107.379Z" fill="#A50050"/>
<path d="M121.399 87.86H123.916V98.2068H121.399L117.199 91.7006V98.2068H114.683V87.86H117.199L121.399 94.375V87.86Z" fill="#A50050"/>
<path d="M126.117 87.8864H130.598C131.65 87.8864 132.483 88.1406 133.105 88.6492C133.728 89.1578 134.044 89.8066 134.044 90.587C134.044 91.7532 133.36 92.5424 132 92.9545C132.693 93.051 133.246 93.3403 133.658 93.8226C134.07 94.3049 134.271 94.866 134.271 95.5149C134.271 96.3392 133.973 96.988 133.368 97.4791C132.763 97.9613 131.922 98.2068 130.852 98.2068H126.117V87.8864ZM128.633 89.7979V92.0338H130.282C130.641 92.0338 130.931 91.9374 131.159 91.7532C131.378 91.5691 131.492 91.2885 131.492 90.9202C131.492 90.552 131.378 90.2714 131.159 90.0785C130.939 89.8856 130.641 89.7891 130.282 89.7891H128.633V89.7979ZM128.633 96.2953H130.527C130.869 96.2953 131.159 96.1901 131.378 95.9884C131.606 95.7867 131.711 95.4974 131.711 95.1379C131.711 94.7784 131.606 94.489 131.387 94.2698C131.167 94.0594 130.896 93.9454 130.545 93.9454H128.616V96.2953H128.633Z" fill="#A50050"/>
<path d="M136.963 96.8126C135.937 95.813 135.429 94.5503 135.429 93.0246C135.429 91.4989 135.937 90.2362 136.963 89.2366C137.989 88.2458 139.243 87.746 140.725 87.746C142.207 87.746 143.461 88.2458 144.478 89.2366C145.495 90.2274 146.004 91.4901 146.004 93.0246C146.004 94.5591 145.495 95.813 144.478 96.8126C143.461 97.8122 142.207 98.312 140.725 98.312C139.243 98.312 137.989 97.8122 136.972 96.8126M142.689 95.1816C143.189 94.6468 143.435 93.919 143.435 93.0246C143.435 92.1302 143.189 91.4024 142.689 90.8675C142.198 90.3327 141.532 90.0608 140.708 90.0608C139.883 90.0608 139.217 90.3327 138.726 90.8675C138.226 91.4112 137.981 92.1302 137.981 93.0246C137.981 93.919 138.226 94.6468 138.726 95.1816C139.217 95.7165 139.883 95.9883 140.708 95.9883C141.532 95.9883 142.198 95.7165 142.689 95.1816Z" fill="#A50050"/>
<path d="M150.125 94.1997V98.2156H147.608V87.8951H151.677C152.869 87.8951 153.799 88.202 154.474 88.8246C155.14 89.4384 155.474 90.1837 155.474 91.0606C155.474 91.6568 155.29 92.2443 154.93 92.8143C154.571 93.3842 153.974 93.7876 153.15 94.0155L155.675 98.2156H152.738L150.414 94.1997H150.116H150.125ZM150.125 89.7979V92.2794H151.686C152.063 92.2794 152.37 92.1654 152.589 91.9374C152.808 91.7094 152.922 91.4113 152.922 91.0518C152.922 90.6923 152.808 90.3854 152.58 90.1486C152.352 89.9119 152.054 89.7979 151.686 89.7979H150.125Z" fill="#A50050"/>
<path d="M158.358 96.8126C157.333 95.813 156.824 94.5503 156.824 93.0246C156.824 91.4989 157.333 90.2362 158.358 89.2366C159.384 88.2458 160.638 87.746 162.12 87.746C163.602 87.746 164.856 88.2458 165.873 89.2366C166.89 90.2274 167.399 91.4901 167.399 93.0246C167.399 94.5591 166.89 95.813 165.873 96.8126C164.856 97.8122 163.602 98.312 162.12 98.312C160.638 98.312 159.393 97.8122 158.367 96.8126M164.093 95.1816C164.584 94.6468 164.838 93.919 164.838 93.0246C164.838 92.1302 164.593 91.4024 164.093 90.8675C163.602 90.3327 162.936 90.0608 162.111 90.0608C161.287 90.0608 160.621 90.3327 160.13 90.8675C159.63 91.4112 159.384 92.1302 159.384 93.0246C159.384 93.919 159.63 94.6468 160.13 95.1816C160.621 95.7165 161.287 95.9883 162.111 95.9883C162.936 95.9883 163.602 95.7165 164.093 95.1816Z" fill="#A50050"/>
<path d="M168.968 94.0506V87.8951H171.485V94.0506C171.485 94.6644 171.634 95.1467 171.941 95.4799C172.248 95.8131 172.686 95.9797 173.274 95.9797C173.861 95.9797 174.317 95.8131 174.624 95.4799C174.94 95.1467 175.097 94.6732 175.097 94.0506V87.8951H177.614V94.0506C177.614 94.9625 177.404 95.7517 176.974 96.4093C176.544 97.0757 176.009 97.558 175.352 97.8561C174.703 98.163 173.993 98.3121 173.23 98.3121C172.037 98.3121 171.029 97.9438 170.205 97.1985C169.38 96.4532 168.968 95.401 168.968 94.0506Z" fill="#A50050"/>
<path d="M180.692 96.8039C179.666 95.8131 179.157 94.5504 179.157 93.0159C179.157 91.4814 179.666 90.2276 180.692 89.2279C181.718 88.2371 182.963 87.7373 184.445 87.7373C185.593 87.7373 186.611 88.0442 187.505 88.6492C188.399 89.2543 189.022 90.096 189.373 91.1745H186.374C185.979 90.4205 185.357 90.0434 184.489 90.0434C183.621 90.0434 182.945 90.3152 182.454 90.8501C181.954 91.3938 181.709 92.1128 181.709 93.0072C181.709 93.9015 181.954 94.6293 182.454 95.1642C182.945 95.6991 183.612 95.9709 184.445 95.9709C185.041 95.9709 185.532 95.8218 185.909 95.5237C186.286 95.2256 186.54 94.8222 186.663 94.3224H183.752V92.4109H189.364V94.3224C189.18 95.2607 188.662 96.1375 187.821 96.953C187.417 97.3475 186.917 97.6632 186.33 97.9087C185.734 98.1542 185.111 98.277 184.445 98.277C182.963 98.277 181.718 97.7772 180.692 96.7864" fill="#A50050"/>
<path d="M197.483 87.8864V92.0163H193.503V87.8864H190.986V98.2068H193.503V93.9278H197.483V98.2068H200V87.8864H197.483Z" fill="#A50050"/>
<path d="M49.6208 35.1703L38.9495 60.6427C44.7016 61.0198 49.2525 65.7898 49.2525 71.6384C49.2525 77.4869 44.3071 82.6779 38.213 82.6779C32.1189 82.6779 27.1735 77.7412 27.1735 71.6384C27.1735 70.3231 27.419 69.0692 27.8399 67.903L28.1555 67.1051L31.9084 58.1349H31.926L56.2848 0H26.814L3.40217 55.8902V55.9077L2.55162 57.9245V57.9333L2.46394 58.1437H2.47271C0.885615 62.3438 0 66.8946 0 71.6471C0 92.7528 17.1073 109.86 38.213 109.86C59.3187 109.86 76.426 92.7528 76.426 71.6471C76.426 54.5136 65.1409 40.028 49.612 35.1791" fill="#512D6D"/>
</svg>
